<?xml version="1.0" encoding="iso-8859-1"?>
<!-- Uploaded to: SVG Repo, www.svgrepo.com, Generator: SVG Repo Mixer Tools -->
<svg height="800px" width="800px" version="1.1" id="Layer_1" xmlns="http://www.w3.org/2000/svg" xmlns:xlink="http://www.w3.org/1999/xlink" 
	 viewBox="0 0 511.999 511.999" xml:space="preserve">
<path style="fill:#00E7F0;" d="M479.945,80.164c-1.04-1.043-72.373-72.373-72.373-72.373c-10.339-10.341-27.105-10.341-37.448,0
	L261.797,116.116c-4.966,4.966-7.757,11.702-7.757,18.725c0,7.022,2.789,13.757,7.755,18.725l53.747,53.743l-54.134,54.132
	l-54.178,54.176l-53.745-53.745c-10.34-10.339-27.107-10.339-37.448,0.002L7.756,370.157c-10.341,10.341-10.341,27.11-0.002,37.448
	c0,0,71.335,71.34,72.357,72.357c20.935,20.937,50.492,32.004,85.47,32.002c69.981-0.002,158.072-44.62,229.901-116.446l0.002-0.002
	c51.419-51.417,89.202-110.896,106.394-167.48C520.805,165.748,513.013,113.227,479.945,80.164z"/>
<path style="fill:#00D7DF;" d="M207.232,315.619l-53.745-53.745c-10.339-10.339-27.107-10.339-37.448,0.002L7.756,370.157
	c-10.341,10.341-10.341,27.108-0.002,37.448c0,0,71.335,71.34,72.357,72.357c20.935,20.937,50.492,32.004,85.47,32.002
	c69.983-0.002,158.072-44.62,229.901-116.446L261.408,261.441L207.232,315.619z"/>
</svg>